<svg xmlns="http://www.w3.org/2000/svg" width="1400" height="620" viewBox="0 0 1400 620"><defs><linearGradient id="bg" x1="0" y1="0" x2="0" y2="1"><stop stop-color="#04111f"/><stop offset="1" stop-color="#062f46"/></linearGradient><linearGradient id="beam" x1="0" x2="1"><stop stop-color="#67e8f9" stop-opacity=".95"/><stop offset="1" stop-color="#22d3ee" stop-opacity=".12"/></linearGradient><filter id="glow"><feGaussianBlur stdDeviation="7" result="b"/><feMerge><feMergeNode in="b"/><feMergeNode in="SourceGraphic"/></feMerge></filter></defs><rect width="1400" height="620" rx="30" fill="url(#bg)"/><circle cx="1220" cy="95" r="52" fill="#0e7490" opacity=".18"/><circle cx="1160" cy="150" r="16" fill="#67e8f9" opacity=".35"/><circle cx="1265" cy="205" r="10" fill="#67e8f9" opacity=".25"/><path d="M0 485 C180 455 310 520 500 485 S820 450 1020 492 S1240 535 1400 490 V620 H0Z" fill="#041b2d"/><text x="58" y="72" fill="#f8fafc" font-family="Inter,Arial" font-size="34" font-weight="700">OpenUWOC-AI</text><text x="58" y="108" fill="#a5f3fc" font-family="Inter,Arial" font-size="18">Simulation-first AI for robust underwater optical wireless communication</text><g font-family="Inter,Arial"><rect x="80" y="235" width="220" height="150" rx="28" fill="#0f2740" stroke="#38bdf8" stroke-width="2"/><text x="190" y="278" text-anchor="middle" fill="#e0f2fe" font-size="20" font-weight="700">AUV / ROV</text><text x="190" y="309" text-anchor="middle" fill="#7dd3fc" font-size="15">optical transmitter</text><rect x="125" y="330" width="130" height="22" rx="11" fill="#082f49"/><circle cx="273" cy="341" r="13" fill="#67e8f9" filter="url(#glow)"/><path d="M286 341 L835 270 L835 410 Z" fill="url(#beam)" opacity=".75"/><g fill="#fde68a" font-size="14"><text x="430" y="245">absorption</text><text x="545" y="415">scattering</text><text x="650" y="235">turbulence</text><text x="730" y="445">pointing error</text></g><path d="M395 300q35-35 70 0t70 0t70 0t70 0" fill="none" stroke="#fde68a" stroke-width="3" stroke-dasharray="8 8" opacity=".7"/><circle cx="525" cy="365" r="9" fill="#fbbf24" opacity=".8"/><circle cx="585" cy="335" r="6" fill="#fbbf24" opacity=".7"/><circle cx="700" cy="375" r="8" fill="#fbbf24" opacity=".6"/><rect x="860" y="210" width="235" height="210" rx="28" fill="#102a43" stroke="#22d3ee" stroke-width="2"/><text x="978" y="250" text-anchor="middle" fill="#ecfeff" font-size="20" font-weight="700">Receiver</text><rect x="900" y="280" width="155" height="44" rx="14" fill="#0c4a6e"/><text x="978" y="307" text-anchor="middle" fill="#bae6fd" font-size="15" font-weight="700">Classical detector</text><rect x="900" y="340" width="155" height="44" rx="14" fill="#312e81"/><text x="978" y="367" text-anchor="middle" fill="#ddd6fe" font-size="15" font-weight="700">Neural equalizer</text><rect x="1135" y="235" width="205" height="160" rx="26" fill="#0f2740" stroke="#34d399" stroke-width="2"/><text x="1238" y="275" text-anchor="middle" fill="#d1fae5" font-size="19" font-weight="700">Adaptive link</text><text x="1238" y="307" text-anchor="middle" fill="#6ee7b7" font-size="14">BER · SNR · confidence</text><text x="1238" y="337" text-anchor="middle" fill="#6ee7b7" font-size="14">modulation · power</text><text x="1238" y="367" text-anchor="middle" fill="#6ee7b7" font-size="14">mission-aware policy</text><path d="M1095 315h40" stroke="#34d399" stroke-width="4"/><path d="M1228 395v70H325v-76" fill="none" stroke="#34d399" stroke-width="3" stroke-dasharray="10 9"/><text x="782" y="485" text-anchor="middle" fill="#a7f3d0" font-size="15" font-weight="700">closed-loop adaptation to changing underwater channel conditions</text></g><text x="58" y="568" fill="#94a3b8" font-family="Inter,Arial" font-size="14">Explanatory research visual — current repository evidence is simulation-only.</text></svg>